HIERARCHY
ROOT Hips
{
    OFFSET 0.0 0.0 0.0
    CHANNELS 6 Xposition Yposition Zposition Zrotation Xrotation Yrotation
    JOINT RightUpLeg
    {
        OFFSET -0.1 0.0 0.0
        CHANNELS 3 Zrotation Xrotation Yrotation
        JOINT RightLeg
        {
            OFFSET 0.0 -0.45 0.0
            CHANNELS 1 Xrotation
            JOINT RightFoot
            {
                OFFSET 0.0 -0.45 0.0
                CHANNELS 0
                End Site
                {
                    OFFSET 0.0 -0.1 0.1
                }
            }
        }
    }
    JOINT LeftUpLeg
    {
        OFFSET 0.1 0.0 0.0
        CHANNELS 3 Zrotation Xrotation Yrotation
        JOINT LeftLeg
        {
            OFFSET 0.0 -0.45 0.0
            CHANNELS 1 Xrotation
            JOINT LeftFoot
            {
                OFFSET 0.0 -0.45 0.0
                CHANNELS 0
                End Site
                {
                    OFFSET 0.0 -0.1 0.1
                }
            }
        }
    }
    JOINT Spine
    {
        OFFSET 0.0 0.2 0.0
        CHANNELS 3 Zrotation Xrotation Yrotation
        End Site
        {
            OFFSET 0.0 0.5 0.0
        }
    }
}
MOTION
Frames: 80
Frame Time: 0.016667
-12.5484 103.7054 746.5789 0.0000 0.0000 0.0000 -9.2766 5.2963 -70.7591 -77.9724 -0.2314 -0.6348 2.2698 -71.1618 3.6031 1.7696 -0.2534
-12.7172 103.5509 749.4291 0.0000 0.0000 0.0000 -5.8228 5.1550 -68.6040 -79.7947 -2.5300 -2.2489 -0.9125 -86.4809 2.4651 0.4319 -0.9461
-13.3507 103.3567 751.7018 0.0000 0.0000 0.0000 -4.2694 5.1689 -67.5000 -83.1947 -4.4595 -3.8253 -7.4916 -106.1888 0.5966 -0.1226 -1.3316
-14.1619 103.5789 753.8375 0.0000 0.0000 0.0000 -5.2679 5.2368 -65.7763 -85.7740 -4.4932 -4.7700 -13.6526 -115.1132 -0.0711 -0.2464 -1.3430
-14.9855 104.2700 755.8483 0.0000 0.0000 0.0000 -7.0254 5.2167 -61.8999 -87.2009 -1.0217 -6.1888 -17.1718 -110.7236 -0.0224 -0.5889 -1.3975
-15.7576 105.0777 757.6241 0.0000 0.0000 0.0000 -7.4556 5.0381 -55.7818 -88.6314 6.1069 -8.9086 -14.8811 -93.9422 -0.2067 -1.3771 -0.9723
-16.1073 105.1637 759.9855 0.0000 0.0000 0.0000 -6.5880 4.3337 -54.6400 -92.8897 11.6459 -9.3030 -7.7239 -77.1451 -0.7969 -1.7101 -0.2421
-15.8828 105.0724 763.2783 0.0000 0.0000 0.0000 -7.0349 2.5676 -58.0280 -96.4077 11.2446 -6.0214 -2.5697 -75.8037 -2.0564 -0.8855 -0.5858
-15.3507 104.8643 767.3336 0.0000 0.0000 0.0000 -8.3094 2.1802 -63.7945 -96.7141 9.4820 -3.7912 0.0612 -73.9475 -2.0417 -0.3821 -0.7314
-14.5646 104.4608 772.0015 0.0000 0.0000 0.0000 -9.6063 3.5421 -70.6275 -94.8861 5.9815 -2.9864 1.3599 -70.8248 -0.6321 0.1242 -0.6534
-13.6591 104.0007 776.9775 0.0000 0.0000 0.0000 -10.6030 5.3758 -74.5707 -85.2316 1.2503 -1.9607 0.4242 -69.0507 2.4210 1.4060 -0.1906
-13.3485 103.5019 780.7308 0.0000 0.0000 0.0000 -8.7741 5.3795 -70.7699 -76.3516 -2.0855 -1.5801 -0.1875 -77.3141 3.7588 1.8635 -0.4927
-13.6014 103.1392 783.5009 0.0000 0.0000 0.0000 -5.3975 5.2244 -69.7694 -79.4956 -4.7919 -3.4895 -4.0163 -94.9985 2.3327 0.5338 -1.0920
-14.2878 102.9222 785.7506 0.0000 0.0000 0.0000 -4.4253 5.2657 -68.8460 -83.0242 -6.7593 -4.5574 -10.0549 -112.4821 0.6537 0.1703 -1.2761
-15.0766 103.1795 787.9031 0.0000 0.0000 0.0000 -5.4069 5.2906 -67.0965 -85.7524 -6.2451 -5.2658 -15.1075 -117.3327 0.1212 -0.0205 -1.2363
-15.8733 103.8942 789.9000 0.0000 0.0000 0.0000 -6.9554 5.2150 -62.9921 -87.3329 -2.0070 -6.7173 -17.0717 -109.1556 0.1476 -0.4727 -1.3136
-16.5839 104.5905 791.7626 0.0000 0.0000 0.0000 -7.0355 5.0464 -57.4098 -89.1332 5.7506 -9.3421 -13.1721 -88.8473 0.0219 -1.3323 -0.7434
-16.8069 104.6802 794.2539 0.0000 0.0000 0.0000 -6.8154 4.1011 -56.4089 -92.9689 9.8027 -8.2441 -5.1439 -75.7503 -0.7825 -1.3673 -0.3253
-16.5036 104.6274 797.7227 0.0000 0.0000 0.0000 -7.5680 2.9716 -59.9837 -95.6565 9.1102 -5.0742 -0.3298 -74.5078 -1.8323 -0.7566 -0.6665
-15.9209 104.4089 801.9472 0.0000 0.0000 0.0000 -8.8592 3.2829 -65.8487 -95.8404 6.8961 -3.4050 2.0548 -72.1769 -1.5284 -0.3401 -0.6256
-15.0576 104.0323 806.8560 0.0000 0.0000 0.0000 -9.9964 5.0483 -72.8054 -92.4983 2.7838 -2.4613 2.3603 -68.7514 0.5165 0.4507 -0.3756
-14.4150 103.5698 811.2703 0.0000 0.0000 0.0000 -9.9454 5.4165 -71.9467 -79.7907 -1.3812 -0.7974 1.7788 -70.6592 3.0901 2.0456 -0.0316
-14.4353 103.3314 814.4040 0.0000 0.0000 0.0000 -6.6567 5.2740 -69.1130 -79.3817 -3.6212 -1.7286 0.6689 -82.6582 2.7589 0.8762 -0.6795
-14.9382 103.0957 816.8560 0.0000 0.0000 0.0000 -4.3507 5.2363 -68.1056 -82.6898 -5.7576 -3.2060 -4.5143 -101.5488 0.9479 0.0828 -1.2765
-15.7150 103.1974 819.0441 0.0000 0.0000 0.0000 -4.6775 5.2499 -66.7155 -85.3757 -6.2693 -3.9697 -10.4039 -113.3757 -0.1251 0.0428 -1.3758
-16.5203 103.7332 821.1758 0.0000 0.0000 0.0000 -6.2580 5.2531 -64.1073 -87.1770 -3.5756 -5.0299 -14.4793 -112.0003 -0.1248 -0.1812 -1.4516
-17.3323 104.6130 822.9835 0.0000 0.0000 0.0000 -7.5959 5.1112 -58.2056 -88.1830 2.9510 -7.0797 -13.5113 -98.2121 -0.1371 -0.7891 -1.3292
-17.8421 104.9038 825.1180 0.0000 0.0000 0.0000 -7.0493 4.8394 -55.0835 -91.0334 10.4660 -8.9376 -6.9152 -76.3916 -0.2717 -1.6307 -0.3874
-17.7570 104.9533 828.0624 0.0000 0.0000 0.0000 -7.5306 3.3329 -56.1303 -94.0297 11.2205 -5.6034 0.0220 -72.8446 -1.3572 -0.9825 -0.6062
-17.2415 104.7868 832.0447 0.0000 0.0000 0.0000 -8.6736 2.9265 -62.0624 -95.3906 9.6176 -3.2494 3.0442 -70.9101 -1.6160 -0.5633 -0.7094
-16.4196 104.4135 836.7394 0.0000 0.0000 0.0000 -9.9322 4.1351 -69.8599 -94.6207 5.9647 -2.3423 3.9665 -67.8149 -0.3513 -0.0383 -0.6078
-15.5199 104.0368 841.6194 0.0000 0.0000 0.0000 -11.0212 5.3946 -73.6043 -84.6649 1.3776 -1.1284 3.0583 -65.7953 2.7420 1.3514 -0.0502
-15.2594 103.7245 845.2033 0.0000 0.0000 0.0000 -8.9380 5.2484 -70.1273 -77.6384 -1.5753 -0.7260 2.5633 -74.0011 3.8376 1.5163 -0.5533
-15.5312 103.5278 847.8544 0.0000 0.0000 0.0000 -5.7514 5.1513 -69.0651 -80.6766 -4.0862 -2.4210 -1.5233 -91.7410 2.4135 0.2176 -1.1538
-16.2437 103.3102 849.9710 0.0000 0.0000 0.0000 -4.7862 5.2080 -68.0809 -83.9328 -6.0643 -3.5854 -8.1785 -111.4790 0.7296 -0.0909 -1.4170
-17.0732 103.5339 852.0021 0.0000 0.0000 0.0000 -5.8544 5.2799 -66.3596 -86.3141 -5.9181 -4.3089 -14.1327 -119.0385 0.2942 -0.2180 -1.3850
-17.9061 104.2276 853.9279 0.0000 0.0000 0.0000 -7.2698 5.2333 -62.3878 -87.5211 -2.0973 -5.8550 -17.7552 -113.4026 0.3946 -0.6126 -1.3842
-18.6929 105.0860 855.5804 0.0000 0.0000 0.0000 -7.6152 5.0590 -55.9987 -88.6783 5.3060 -8.6964 -15.4895 -95.4166 0.1821 -1.3985 -0.9611
-19.0498 105.1949 857.8259 0.0000 0.0000 0.0000 -6.7516 4.4327 -54.8195 -92.8245 11.4909 -9.6475 -8.2227 -75.3642 -0.3199 -1.8758 -0.1306
-18.8029 105.2252 860.9409 0.0000 0.0000 0.0000 -7.2599 2.4915 -57.4335 -96.4243 11.0964 -6.1149 -2.7606 -74.6426 -1.7761 -0.9269 -0.6938
-18.2546 105.1339 864.8478 0.0000 0.0000 0.0000 -8.6881 1.8179 -62.5658 -96.8858 9.5548 -3.8591 -0.1537 -73.4953 -2.0149 -0.4587 -0.8981
-17.4947 104.8348 869.3256 0.0000 0.0000 0.0000 -10.0509 2.9873 -68.6771 -94.9664 6.7000 -2.9721 1.4466 -70.5968 -0.8687 -0.0226 -0.8180
-16.5339 104.3898 874.3224 0.0000 0.0000 0.0000 -10.9228 5.0367 -74.0577 -87.0115 2.0714 -2.1821 0.1508 -68.2931 1.9338 1.0566 -0.3496
-16.0760 103.7984 878.2258 0.0000 0.0000 0.0000 -9.5325 5.3310 -70.4590 -75.4600 -1.6867 -1.2658 -0.5454 -74.3692 3.7848 1.9321 -0.2909
-16.2022 103.3734 881.1493 0.0000 0.0000 0.0000 -5.6985 5.2526 -69.4728 -77.9820 -4.4486 -3.0792 -3.8646 -90.1091 2.6619 0.5496 -0.8425
-16.8028 102.9930 883.4463 0.0000 0.0000 0.0000 -4.0084 5.2896 -69.0255 -81.9062 -6.6785 -4.2826 -9.4829 -108.7259 0.8935 0.1038 -1.0728
-17.5326 103.1066 885.6038 0.0000 0.0000 0.0000 -4.6882 5.3479 -67.8367 -84.9920 -6.7154 -4.6859 -14.1442 -115.5939 0.3156 -0.0556 -1.0478
-18.2534 103.6948 887.6536 0.0000 0.0000 0.0000 -6.3471 5.2753 -64.6185 -86.9277 -3.2761 -5.6594 -16.1033 -109.4196 0.4324 -0.4712 -1.1655
-18.9483 104.4437 889.4890 0.0000 0.0000 0.0000 -7.2323 5.0401 -59.1327 -88.7560 3.8319 -7.8420 -12.5870 -91.1352 0.3167 -1.2531 -0.7378
-19.2149 104.5574 891.8729 0.0000 0.0000 0.0000 -6.9750 4.2585 -57.8665 -92.7769 9.0136 -7.2523 -4.3800 -73.5091 -0.2137 -1.4539 -0.0378
-18.9385 104.6160 895.1953 0.0000 0.0000 0.0000 -7.8342 3.0650 -60.2391 -95.5099 8.4409 -3.5175 1.5130 -71.8943 -1.4315 -0.6279 -0.4540
-18.3536 104.5134 899.4636 0.0000 0.0000 0.0000 -9.0779 3.4030 -65.9452 -95.5412 6.0729 -1.7499 3.9880 -69.5762 -1.3575 -0.2538 -0.4148
-17.4993 104.2751 904.4859 0.0000 0.0000 0.0000 -10.0823 5.1535 -72.7581 -91.1651 1.8055 -0.9003 3.9111 -65.9549 0.6592 0.4524 0.0097
-16.9483 103.9056 908.8357 0.0000 0.0000 0.0000 -9.8697 5.4346 -70.7361 -77.4101 -2.1459 0.7793 4.1993 -68.1254 2.9671 2.1675 0.2313
-17.0216 103.7418 911.9700 0.0000 0.0000 0.0000 -6.2746 5.3111 -68.1769 -77.2681 -4.2089 -0.4896 3.1528 -80.5233 2.5052 0.7990 -0.4441
-17.5474 103.4574 914.4224 0.0000 0.0000 0.0000 -3.7798 5.2191 -67.7348 -81.2363 -6.4763 -2.1707 -2.0566 -100.4075 0.7184 0.0379 -1.0877
-18.3761 103.5086 916.5541 0.0000 0.0000 0.0000 -4.0496 5.2413 -66.4579 -84.1726 -7.2584 -2.7492 -8.2911 -114.1200 -0.4209 0.0749 -1.2554
-19.2300 103.9847 918.6686 0.0000 0.0000 0.0000 -5.4950 5.2509 -64.0789 -86.1648 -4.8985 -3.7225 -13.2571 -114.6289 -0.5266 -0.1139 -1.3329
-20.0992 104.8630 920.5433 0.0000 0.0000 0.0000 -7.0968 5.1509 -58.6900 -87.1450 1.2345 -5.8332 -14.0602 -102.5442 -0.5689 -0.6828 -1.4125
-20.7674 105.3147 922.5839 0.0000 0.0000 0.0000 -6.6433 4.9850 -54.8409 -89.6355 9.9401 -8.7649 -8.9741 -79.0159 -0.6779 -1.6178 -0.5490
-20.8729 105.3473 925.3177 0.0000 0.0000 0.0000 -6.9012 3.5894 -55.0525 -93.4975 12.1964 -5.9724 -0.6105 -72.2830 -1.6058 -1.2073 -0.4150
-20.4743 105.2525 929.1009 0.0000 0.0000 0.0000 -7.9372 2.6996 -60.0006 -95.5146 11.0177 -2.9381 3.3284 -70.5343 -2.2367 -0.6411 -0.6591
-19.7722 105.0113 933.6006 0.0000 0.0000 0.0000 -9.2914 3.4855 -66.7522 -95.1438 8.0537 -1.5920 4.9539 -67.6823 -1.4869 -0.2444 -0.6317
-18.8251 104.6775 938.6830 0.0000 0.0000 0.0000 -10.4127 5.2445 -73.0820 -88.8449 3.3639 -0.8405 3.6951 -64.6913 1.1011 0.6941 -0.1816
-18.3687 104.2638 942.7047 0.0000 0.0000 0.0000 -9.5573 5.3065 -69.3189 -75.9589 -0.2598 0.3216 3.2040 -69.3490 3.1768 1.9702 -0.1873
-18.5124 104.1030 945.6504 0.0000 0.0000 0.0000 -5.9337 5.2400 -67.3581 -77.5034 -2.4055 -1.4947 0.2019 -84.0771 2.1881 0.5337 -0.9212
-19.1104 103.8305 948.0045 0.0000 0.0000 0.0000 -4.0163 5.2017 -66.8727 -81.3544 -4.3484 -3.4944 -6.4278 -104.0789 0.3837 -0.0818 -1.3224
-19.9241 103.9613 950.1346 0.0000 0.0000 0.0000 -4.7590 5.2223 -65.4735 -84.1154 -4.5607 -4.5849 -12.9368 -114.4685 -0.2857 -0.1096 -1.3371
-20.7581 104.5581 952.1719 0.0000 0.0000 0.0000 -6.3202 5.2146 -62.3520 -85.8097 -1.4494 -6.0721 -17.3414 -111.5071 -0.1469 -0.4164 -1.4139
-21.5890 105.4036 953.9088 0.0000 0.0000 0.0000 -7.1139 5.0406 -56.2383 -87.2090 5.3612 -8.7552 -16.2537 -96.0649 -0.2454 -1.1406 -1.1384
-22.0512 105.5804 956.0573 0.0000 0.0000 0.0000 -6.4672 4.5543 -53.6275 -91.4182 11.8603 -9.8803 -9.2221 -77.4651 -0.6333 -1.7003 -0.4381
-21.9105 105.5192 959.0983 0.0000 0.0000 0.0000 -6.8773 2.6862 -55.7385 -95.5625 12.0841 -6.7304 -3.3037 -75.7318 -2.0168 -1.0572 -0.6603
-21.4170 105.3206 962.9854 0.0000 0.0000 0.0000 -8.0708 1.8975 -61.2917 -96.8086 10.7239 -4.3537 -0.4586 -74.1989 -2.3527 -0.6043 -0.8055
-20.7098 104.9557 967.3942 0.0000 0.0000 0.0000 -9.5714 2.8046 -67.4236 -95.6879 8.0433 -3.2580 1.5387 -71.1931 -1.3635 -0.1132 -0.7964
-19.7201 104.4713 972.4436 0.0000 0.0000 0.0000 -10.7324 4.8385 -73.9123 -89.6238 3.6097 -2.6117 1.0936 -67.7649 1.3880 0.8447 -0.4516
-19.0821 103.8688 976.7139 0.0000 0.0000 0.0000 -10.4764 5.3879 -71.3220 -75.5094 -0.3705 -1.1016 0.9473 -71.0003 4.0397 2.4537 -0.3785
-19.0689 103.5120 979.7918 0.0000 0.0000 0.0000 -6.6607 5.2723 -69.7641 -76.6902 -2.9217 -2.7792 -1.3185 -84.8187 3.3701 1.0115 -1.0165
-19.5534 103.0569 982.2033 0.0000 0.0000 0.0000 -4.3132 5.2742 -69.8224 -80.9794 -5.5353 -4.6712 -7.3588 -104.7176 1.5832 0.2091 -1.3831
-20.3177 103.0427 984.3080 0.0000 0.0000 0.0000 -4.5838 5.3090 -68.6645 -84.0605 -6.4555 -5.5075 -13.4931 -115.8511 0.6109 0.1441 -1.2805
-21.0898 103.4703 986.3552 0.0000 0.0000 0.0000 -5.7162 5.2958 -66.2930 -86.2633 -4.0195 -6.6758 -17.7226 -113.5476 0.6096 -0.1411 -1.2788
